<?xml version="1.0" standalone="no"?><!DOCTYPE svg PUBLIC "-//W3C//DTD SVG 1.1//EN" "http://www.w3.org/Graphics/SVG/1.1/DTD/svg11.dtd"><svg t="1511959711097" class="icon" style="" viewBox="0 0 1024 1024" version="1.1" xmlns="http://www.w3.org/2000/svg" p-id="2323" xmlns:xlink="http://www.w3.org/1999/xlink" width="200" height="200"><defs><style type="text/css"></style></defs><path d="M792 464h-72l152-160v103.456h152V464H792zM352 304l104 176 112-176h72L512 512h104v56H512v48h104v56H512v152H408V672H304v-56h104v-48H304v-56h105.6L272 304h80z m520 296.544H720V544h304l-152 160V600.544zM512 102.248c-226.296 0-409.752 183.456-409.752 409.752 0 226.296 183.456 409.752 409.752 409.752 129.416 0 244.736-60.056 319.832-153.752h123.504C866.792 920.992 701.48 1024 512 1024 229.232 1024 0 794.768 0 512 0 229.232 229.232 0 512 0c189.48 0 354.792 103.008 443.336 256h-123.504C756.736 162.304 641.416 102.248 512 102.248z" p-id="2324" fill="#2d8cf0"></path></svg>