<?xml version="1.0" standalone="no"?><!DOCTYPE svg PUBLIC "-//W3C//DTD SVG 1.1//EN" "http://www.w3.org/Graphics/SVG/1.1/DTD/svg11.dtd"><svg t="1518170287274" class="icon" style="" viewBox="0 0 1156 1024" version="1.1" xmlns="http://www.w3.org/2000/svg" p-id="1937" xmlns:xlink="http://www.w3.org/1999/xlink" width="36.125" height="32"><defs><style type="text/css"></style></defs><path d="M1102.769231 840.205128 52.512821 840.205128C23.499487 840.205128 0 816.705641 0 787.692308L0 52.512821C0 23.499487 23.499487 0 52.512821 0L1102.769231 0C1131.782564 0 1155.282051 23.499487 1155.282051 52.512821L1155.282051 787.692308C1155.282051 816.705641 1131.782564 840.205128 1102.769231 840.205128ZM1050.25641 144.410256C1050.25641 122.669949 1032.612103 105.025641 1010.871795 105.025641L144.410256 105.025641C122.669949 105.025641 105.025641 122.669949 105.025641 144.410256L105.025641 669.538462C105.025641 691.278769 122.669949 708.923077 144.410256 708.923077L1010.871795 708.923077C1032.612103 708.923077 1050.25641 691.278769 1050.25641 669.538462L1050.25641 144.410256ZM393.846154 918.974359 761.435897 918.974359C790.449231 918.974359 813.948718 942.473846 813.948718 971.487179 813.948718 1000.474256 790.449231 1024 761.435897 1024L393.846154 1024C364.832821 1024 341.333333 1000.474256 341.333333 971.487179 341.333333 942.473846 364.832821 918.974359 393.846154 918.974359Z" p-id="1938" fill="#ffffff"></path></svg>