<?xml version="1.0" standalone="no"?><!DOCTYPE svg PUBLIC "-//W3C//DTD SVG 1.1//EN" "http://www.w3.org/Graphics/SVG/1.1/DTD/svg11.dtd"><svg t="1512183373121" class="icon" style="" viewBox="0 0 2560 1024" version="1.1" xmlns="http://www.w3.org/2000/svg" p-id="2045" xmlns:xlink="http://www.w3.org/1999/xlink" width="500" height="200"><defs><style type="text/css"></style></defs><path d="M2423.467 68.267H659.9C638.123 47.65 619.793 24.883 606.55 0H280.882C233.882 88.44 127.863 153.6 0 167.56v276.173l1.434 0.956c14.813 268.902 197.597 491.145 442.3 558.046a584.192 584.192 0 0 0 117.964-47.002h1861.769A136.533 136.533 0 0 0 2560 819.2V204.8a136.533 136.533 0 0 0-136.533-136.533z m-509.68 201.796c36.387 38.127 61.884 65.707 76.528 82.67l-32.666 28.366a1049.805 1049.805 0 0 0-72.328-85.573l28.467-25.463z m-444.518 1.434a2897.306 2897.306 0 0 1 78.882 85.094L1515.964 384a1539.789 1539.789 0 0 0-74.206-88.474l27.511-24.03zM785.067 409.6c0 227.26-143.258 419.67-341.334 486.537C245.623 829.269 102.4 636.86 102.4 409.6V251.494c96.051-27.682 177.357-80.657 232.14-149.094h218.42c54.716 68.437 136.055 121.412 232.107 149.094V409.6z m592.52 250.3c-9.318 36.215-35.464 54.306-78.404 54.306h-248.286c-47.616 0-71.407-25.293-71.407-75.947V388.301h40.14v65.877h279.075V330.65H962.22v-35.567h375.671V519.1h-39.185v-29.32h-279.074v139.878c0 29.49 13.517 44.236 40.584 44.236h230.06c26.76 0 42.939-9.932 48.537-29.798 5.598-19.558 9.796-45.67 12.595-78.37 12.117 5.461 25.463 10.274 40.14 14.438-4.334 33.28-9.01 59.87-13.96 79.736z m96.802 29.286l-27.545-29.798c9.967-10.582 14.95-24.679 14.95-42.291V455.134h-62.532v-34.645h98.918v196.13c23.04-18.91 50.722-42.462 83.08-70.656 1.878 14.097 4.37 27.067 7.476 38.946a1661.338 1661.338 0 0 0-92.877 79.292 160.085 160.085 0 0 0-21.47 24.985z m360.278 36.557c-66.39-48.06-111.616-124.962-135.544-230.707-17.135 96.768-64.956 176.571-143.53 239.377a483.738 483.738 0 0 0-27.068-30.754c96.46-71.476 144.998-176.401 145.613-314.846 0.921-35.908 1.4-76.254 1.4-121.14h37.785a10205.013 10205.013 0 0 1-1.605 123.768c17.101 146.296 68.199 245.35 153.26 297.301a723.627 723.627 0 0 0-30.311 37z m76.322-69.7c9.318-13.449 13.994-29.457 13.994-48.06V457.557h-56.456v-34.61h92.399v187.425c14.302-14.097 32.017-33.007 53.214-56.695 1.229 11.196 4.198 25.122 8.874 41.813-37.683 38.468-66.15 69.052-85.401 91.819l-26.624-31.266z m420.488 53.828h-344.883v-35.567h64.853V408.508h35.943v265.796h74.206V322.935h-149.334V287.37h311.74v35.566h-125.064v144.692h108.27v35.567h-108.27v171.11h132.54v35.567zM274.773 439.603L202.377 512l168.96 168.926 38.263 1.74 4.13-1.74 305.493-305.46-72.396-72.396-254.294 254.26-117.76-117.727z" p-id="2046" fill="#19be6b"></path></svg>