<?xml version="1.0" standalone="no"?><!DOCTYPE svg PUBLIC "-//W3C//DTD SVG 1.1//EN" "http://www.w3.org/Graphics/SVG/1.1/DTD/svg11.dtd"><svg t="1512183356725" class="icon" style="" viewBox="0 0 2560 1024" version="1.1" xmlns="http://www.w3.org/2000/svg" p-id="3192" xmlns:xlink="http://www.w3.org/1999/xlink" width="500" height="200"><defs><style type="text/css"></style></defs><path d="M2423.466667 68.266667H659.899733c-21.777067-20.616533-40.106667-43.383467-53.3504-68.266667H280.8832C233.8816 88.439467 127.863467 153.6 0 167.560533V443.733333l1.4336 0.955734C16.247467 713.591467 199.031467 935.8336 443.733333 1002.734933A584.192 584.192 0 0 0 561.698133 955.733333H2423.466667a136.533333 136.533333 0 0 0 136.533333-136.533333V204.8a136.533333 136.533333 0 0 0-136.533333-136.533333zM1913.787733 270.062933c36.386133 38.126933 61.883733 65.706667 76.526934 82.670934l-32.6656 28.3648a1049.8048 1049.8048 0 0 0-72.328534-85.572267l28.4672-25.463467z m-444.5184 1.4336a2897.3056 2897.3056 0 0 1 78.882134 85.0944l-32.187734 27.409067a1539.7888 1539.7888 0 0 0-74.205866-88.4736l27.511466-24.029867zM785.066667 409.6c0 227.259733-143.2576 419.669333-341.333334 486.536533C245.6576 829.269333 102.4 636.859733 102.4 409.6V251.4944C198.4512 223.812267 279.790933 170.837333 334.506667 102.4h218.4192C607.675733 170.837333 688.981333 223.812267 785.066667 251.4944V409.6z m585.5232 287.778133c-81.988267-42.120533-144.9984-96.597333-189.0304-163.396266v200.9088H1145.173333v-200.430934c-47.274667 64.546133-110.455467 120.763733-189.44 168.686934a411.067733 411.067733 0 0 0-25.1904-32.187734c84.48-45.6704 151.210667-100.590933 200.192-164.864H937.984v-35.566933h207.189333v-90.350933h-179.677866v-35.566934h179.677866V262.382933h36.386134v82.193067h181.5552v35.566933h-181.5552v90.350934h207.223466v35.566933H1194.666667c50.0736 68.9152 117.418667 120.797867 202.069333 155.7504-8.738133 10.888533-17.476267 22.766933-26.146133 35.566933z m103.799466-8.192l-27.5456-29.7984c9.966933-10.581333 14.9504-24.6784 14.9504-42.2912v-161.962666h-62.532266v-34.645334h98.9184v196.130134c23.04-18.909867 50.722133-42.461867 83.080533-70.656 1.877333 14.097067 4.369067 27.067733 7.4752 38.946133a1661.3376 1661.3376 0 0 0-92.8768 79.291733 160.085333 160.085333 0 0 0-21.469867 24.9856z m360.277334 36.5568c-66.389333-48.059733-111.616-124.962133-135.543467-230.7072-17.134933 96.768-64.955733 176.571733-143.530667 239.377067a483.7376 483.7376 0 0 0-27.067733-30.754133c96.4608-71.4752 144.9984-176.401067 145.6128-314.845867 0.9216-35.908267 1.399467-76.253867 1.399467-121.1392h37.7856a10205.013333 10205.013333 0 0 1-1.604267 123.767467c17.1008 146.295467 68.1984 245.3504 153.258667 297.301333a723.626667 723.626667 0 0 0-30.3104 37.000533z m76.322133-69.700266c9.3184-13.448533 13.994667-29.457067 13.994667-48.059734v-150.4256h-56.456534v-34.6112h92.398934v187.426134c14.301867-14.097067 32.017067-33.006933 53.213866-56.695467 1.2288 11.195733 4.1984 25.122133 8.874667 41.813333-37.6832 38.468267-66.1504 69.051733-85.4016 91.818667l-26.624-31.266133z m420.488533 53.828266H1986.594133v-35.566933h64.853334v-265.796267h35.9424v265.796267h74.205866V322.935467h-149.333333V287.368533h311.739733v35.566934h-125.064533V467.626667h108.270933v35.566933h-108.270933v171.1104h132.539733v35.566933zM274.773333 439.6032L202.376533 512l168.96 168.925867L409.6 682.666667l4.130133-1.7408L719.223467 375.466667 646.826667 303.069867l-254.293334 254.2592-117.76-117.725867z" p-id="3193" fill="#bbbec4"></path></svg>